<svg width="52" height="52" viewBox="0 0 52 52" fill="none" xmlns="http://www.w3.org/2000/svg">
<path d="M8.66666 26C8.66666 20.9517 10.8767 16.4233 14.3433 13.26L17.6583 16.575C18.33 17.2467 19.5 16.77 19.5 15.795V6.5C19.5 5.89334 19.0233 5.41667 18.4167 5.41667H9.12166C8.14666 5.41667 7.66999 6.58667 8.36333 7.25834L11.2667 10.1833C7.01999 14.1267 4.33333 19.7383 4.33333 26C4.33333 36.2916 11.5267 44.915 21.1467 47.125C22.5117 47.4283 23.8333 46.41 23.8333 45.0016C23.8333 43.9833 23.1183 43.1166 22.1217 42.8783C14.43 41.1233 8.66666 34.2333 8.66666 26ZM47.6667 26C47.6667 15.7083 40.4733 7.085 30.8533 4.875C29.4883 4.57167 28.1667 5.59 28.1667 6.99834C28.1667 8.01667 28.8817 8.88334 29.8783 9.12167C37.57 10.8767 43.3333 17.7667 43.3333 26C43.3333 31.0483 41.1233 35.5766 37.6567 38.74L34.3417 35.425C33.67 34.7533 32.5 35.23 32.5 36.205V45.5C32.5 46.1066 32.9767 46.5833 33.5833 46.5833H42.8783C43.8533 46.5833 44.33 45.4133 43.6367 44.7416L40.7333 41.8166C44.98 37.8733 47.6667 32.2617 47.6667 26Z" fill="#111827"/>
<path d="M36.725 22.1649L24.4617 34.4283C23.6167 35.2733 22.2517 35.2733 21.4067 34.4283L15.275 28.2966C14.43 27.4516 14.43 26.0866 15.275 25.2416C16.12 24.3966 17.485 24.3966 18.33 25.2416L22.9234 29.8349L33.6484 19.1099C34.4934 18.2649 35.8584 18.2649 36.7034 19.1099C37.57 19.9549 37.57 21.3199 36.725 22.1649Z" fill="#866EFF"/>
<path d="M8.66671 25.9999C8.66671 20.9516 10.8767 16.4233 14.3434 13.26L17.6584 16.575C18.33 17.2466 19.5 16.77 19.5 15.795V6.49996C19.5 5.89329 19.0234 5.41663 18.4167 5.41663H9.12171C8.14671 5.41663 7.67004 6.58663 8.36337 7.25829L11.2667 10.1833C7.02004 14.1266 4.33337 19.7383 4.33337 25.9999C4.33337 36.2916 11.5267 44.9149 21.1467 47.1249C22.5117 47.4283 23.8334 46.4099 23.8334 45.0016C23.8334 43.9833 23.1184 43.1166 22.1217 42.8783C14.43 41.1233 8.66671 34.2333 8.66671 25.9999Z" fill="#111827"/>
</svg>
