<svg width="44" height="45" viewBox="0 0 44 45" fill="none" xmlns="http://www.w3.org/2000/svg">
<path d="M34.9744 9.52562C32.5769 6.98716 28.3462 5.71793 22 5.5769C15.6539 5.71793 11.4231 6.98716 9.02565 9.52562C6.48719 11.9231 5.21796 16.1538 5.07693 22.5C5.21796 28.8461 6.48719 33.0769 9.02565 35.4743C11.4231 38.0128 15.6539 39.282 22 39.4231C28.3462 39.282 32.5769 38.0128 34.9744 35.4743C37.5128 32.9359 38.7821 28.8461 38.9231 22.5C38.7821 16.1538 37.5128 11.9231 34.9744 9.52562Z" fill="url(#paint0_linear_880_311)"/>
<path d="M31.7187 15.3076C31.1385 14.7435 30.2681 14.7435 29.6879 15.3076L18.8088 25.8845L14.3121 21.5127C13.7319 20.9486 12.8615 20.9486 12.2813 21.5127C11.7011 22.0768 11.7011 22.923 12.2813 23.4871L17.7934 28.8461C18.0835 29.1281 18.3736 29.2691 18.8088 29.2691C19.244 29.2691 19.5341 29.1281 19.8242 28.8461L31.7187 17.282C32.2989 16.7179 32.2989 15.8717 31.7187 15.3076Z" fill="white"/>
<defs>
<linearGradient id="paint0_linear_880_311" x1="9.12296" y1="9.62293" x2="34.9504" y2="35.4504" gradientUnits="userSpaceOnUse">
<stop stop-color="#A694FF"/>
<stop offset="1" stop-color="#7054FF"/>
</linearGradient>
</defs>
</svg>
