<svg width="52" height="52" viewBox="0 0 52 52" fill="none" xmlns="http://www.w3.org/2000/svg">
<g clip-path="url(#clip0_880_206)">
<path d="M45.6168 15.0383L41.275 13.3656C39.6124 17.4322 35.7977 20.0982 31.4905 20.2373C27.2047 20.0989 23.3201 17.314 21.7059 13.3656L17.3641 15.0383C13.2509 16.5719 10.9809 18.0151 10.9809 21.6419V30.6393H15.731V24.8889H18.7728H18.7779L18.7728 35.9836H32.5071C35.2909 35.9836 37.5558 38.4617 37.5558 41.5065V41.5136C37.5558 43.0858 36.9515 44.5077 35.9846 45.5142C36.9515 46.5207 37.5558 47.9415 37.5558 49.5137V49.5198C37.5558 50.4105 37.3618 51.2545 37.0185 52H44.2081V24.8889H47.255V30.6393H52V21.6419C52 18.0151 49.7311 16.5719 45.6168 15.0383Z" fill="#795FFF"/>
<path d="M31.4905 12.9259L36.7423 14.7469C37.4085 14.038 37.9559 13.195 38.3439 12.2454L33.0677 10.2527V8.61656C34.7364 7.97672 35.9257 6.35172 35.9257 4.45352C35.9257 1.99773 33.9371 0 31.4915 0H29.968V3.04688H31.4915C32.1984 3.04688 32.7742 3.67758 32.7742 4.45352C32.7742 5.22945 32.1984 5.86016 31.4915 5.86016H29.9152V10.2294L24.638 12.2454V12.2474C25.0524 13.261 25.6496 14.1538 26.3788 14.8921L31.4905 12.9259Z" fill="#795FFF"/>
<path d="M8.48859 11.6817H10.1654C10.1654 8.91922 12.4059 6.67977 15.1684 6.67977V5.00195C12.4059 5.00195 10.1654 2.7625 10.1654 0H8.48859C8.48859 2.7625 6.24913 5.00195 3.48663 5.00195V6.67977C6.24913 6.67977 8.48859 8.91922 8.48859 11.6817Z" fill="#795FFF"/>
<path d="M32.0287 39.0305H2.48016C1.11038 39.0305 0 40.1408 0 41.5106C0 42.8804 1.11038 43.9908 2.48016 43.9908H32.0287C33.3985 43.9908 34.5089 42.8804 34.5089 41.5106C34.5089 40.1408 33.3985 39.0305 32.0287 39.0305Z" fill="#795FFF"/>
<path d="M32.0287 47.0397H2.48016C1.11038 47.0397 0 48.1501 0 49.5198C0 50.8896 1.11038 52 2.48016 52H32.0287C33.3985 52 34.5089 50.8896 34.5089 49.5198C34.5089 48.1501 33.3985 47.0397 32.0287 47.0397Z" fill="#795FFF"/>
</g>
<defs>
<clipPath id="clip0_880_206">
<rect width="52" height="52" fill="white"/>
</clipPath>
</defs>
</svg>
