<svg width="52" height="52" viewBox="0 0 52 52" fill="none" xmlns="http://www.w3.org/2000/svg">
<path fill-rule="evenodd" clip-rule="evenodd" d="M30.6747 8H40L38.2351 18.5444L34.8782 17.3168C33.6702 16.8748 32.2778 17.0023 31.209 17.6552L29 19L30.6747 8Z" fill="#866EFF"/>
<path fill-rule="evenodd" clip-rule="evenodd" d="M13.125 16C14.16 16 15 16.851 15 17.8992C15 18.9474 14.16 19.8004 13.125 19.8004H1.875C0.84 19.8004 0 18.9474 0 17.8992C0 16.851 0.84 16 1.875 16H13.125ZM8.4375 31.1996C9.4725 31.1996 10.3125 32.0526 10.3125 33.1008C10.3125 34.149 9.4725 35 8.4375 35H1.875C0.84 35 0 34.149 0 33.1008C0 32.0526 0.84 31.1996 1.875 31.1996H8.4375ZM10.3125 23.6008C11.3475 23.6008 12.1875 24.4518 12.1875 25.5C12.1875 26.5482 11.3475 27.3992 10.3125 27.3992H1.875C0.84 27.3992 0 26.5482 0 25.5C0 24.4518 0.84 23.6008 1.875 23.6008H10.3125Z" fill="#866EFF"/>
<path fill-rule="evenodd" clip-rule="evenodd" d="M43.6878 8H46.5929C48.132 8 49.5971 8.63559 50.6226 9.74741C51.648 10.8611 52.1364 12.3454 51.967 13.8296L49.1646 38.3304C48.86 40.9895 46.546 43 43.7905 43H20.4071C18.868 43 17.4028 42.3644 16.3774 41.2526C15.3519 40.1389 14.8636 38.6546 15.033 37.1704L17.8354 12.6696C18.1399 10.0105 20.4539 8 23.2095 8H27.4807L25.938 19.5388C25.7542 20.9212 26.43 22.2757 27.6591 22.9929C28.89 23.7081 30.4399 23.647 31.6077 22.8372L33.7216 21.3715L36.9368 22.7093C37.9676 23.1374 39.1445 23.0762 40.1212 22.5426C41.0998 22.0089 41.7648 21.0639 41.9234 19.9872L43.6878 8ZM25.3901 36.0011H30.7967C31.7915 36.0011 32.5989 35.2154 32.5989 34.25C32.5989 33.2846 31.7915 32.5007 30.7967 32.5007H25.3901C24.3953 32.5007 23.588 33.2846 23.588 34.25C23.588 35.2154 24.3953 36.0011 25.3901 36.0011Z" fill="#111827"/>
</svg>
