<svg width="52" height="52" viewBox="0 0 52 52" fill="none" xmlns="http://www.w3.org/2000/svg">
<path d="M26.2871 0C16.187 0 8 8.18702 8 18.2871C8 28.3871 16.187 36.5741 26.2871 36.5741C36.3871 36.5741 44.5741 28.3871 44.5741 18.2871C44.5741 8.18702 36.3871 0 26.2871 0ZM34.3274 16.7975L30.9861 20.0552L31.7754 24.6539C31.9073 25.4191 31.1031 26.0023 30.4177 25.6402L26.2871 23.469L22.1564 25.6402C21.4692 26.0005 20.6668 25.4173 20.7987 24.6539L21.5881 20.0552L18.2468 16.7975C17.6914 16.2552 17.9979 15.3117 18.765 15.2002L23.3822 14.5297L25.4476 10.3452C25.7912 9.64872 26.783 9.64872 27.1266 10.3452L29.1919 14.5297L33.8092 15.2002C34.5762 15.3117 34.8827 16.257 34.3274 16.7975Z" fill="#111827"/>
<path d="M26.287 39.3582C22.3087 39.3582 18.5996 38.2308 15.4218 36.3066V51.0202C15.4218 51.8003 16.2947 52.2646 16.9448 51.8375L25.7484 46.0612C26.0827 45.8384 26.4913 45.8384 26.8257 46.0612L35.6293 51.8375C36.2794 52.2646 37.1523 51.8003 37.1523 51.0202V36.3066C33.9744 38.2308 30.2654 39.3582 26.287 39.3582Z" fill="#866EFF"/>
</svg>
