<svg width="29" height="28" viewBox="0 0 29 28" fill="none" xmlns="http://www.w3.org/2000/svg">
<path d="M21.0417 7.58325H21.0533M8.79166 2.33325H20.4583C23.68 2.33325 26.2917 4.94492 26.2917 8.16659V19.8333C26.2917 23.0549 23.68 25.6666 20.4583 25.6666H8.79166C5.57 25.6666 2.95833 23.0549 2.95833 19.8333V8.16659C2.95833 4.94492 5.57 2.33325 8.79166 2.33325ZM19.2917 13.2649C19.4356 14.2359 19.2698 15.2275 18.8177 16.0988C18.3656 16.97 17.6503 17.6766 16.7736 18.1179C15.8968 18.5592 14.9032 18.7128 13.9341 18.5568C12.965 18.4009 12.0697 17.9433 11.3756 17.2493C10.6816 16.5552 10.224 15.6599 10.0681 14.6908C9.91213 13.7217 10.0657 12.7281 10.507 11.8514C10.9483 10.9746 11.6549 10.2593 12.5261 9.8072C13.3974 9.35512 14.389 9.18927 15.36 9.33325C16.3504 9.48012 17.2673 9.94163 17.9753 10.6496C18.6833 11.3576 19.1448 12.2745 19.2917 13.2649Z" stroke="#727272" stroke-width="1.5" stroke-linecap="round" stroke-linejoin="round"/>
</svg>
