<svg width="52" height="52" viewBox="0 0 52 52" fill="none" xmlns="http://www.w3.org/2000/svg">
<g clip-path="url(#clip0_880_234)">
<path d="M51.6804 7.62776C51.5599 7.5107 51.4314 7.40211 51.2958 7.30276C50.3596 6.63706 49.1979 6.3688 48.0646 6.55654C46.9312 6.74429 45.9181 7.37279 45.2465 8.30485L44.9573 8.71001C44.2853 8.44205 43.5428 8.40778 42.849 8.61271C42.1552 8.81764 41.5505 9.24987 41.132 9.83993L40.3964 10.8648C40.6759 10.8572 40.9457 10.8409 41.2295 10.8366C42.0715 10.8367 42.9026 11.0269 43.6608 11.3931C44.419 11.7592 45.0847 12.2919 45.6083 12.9513C46.0688 13.5406 46.5086 14.1429 46.9376 14.7583L47.2929 14.2632C47.7725 13.6068 47.985 12.7929 47.8874 11.9859C47.7899 11.1789 47.3896 10.439 46.7675 9.91576L47.0145 9.5691C47.3481 9.10728 47.8497 8.79486 48.4113 8.69903C48.9729 8.6032 49.5496 8.73163 50.0175 9.05668C50.0652 9.08948 50.1104 9.12569 50.1529 9.16501C50.2532 9.26816 50.3729 9.35032 50.5053 9.40669C50.6376 9.46306 50.7798 9.49252 50.9236 9.49334C51.0674 9.49417 51.21 9.46635 51.343 9.4115C51.4759 9.35665 51.5966 9.27588 51.698 9.17389C51.7995 9.0719 51.8795 8.95074 51.9336 8.81747C51.9877 8.6842 52.0147 8.54149 52.0131 8.39767C52.0115 8.25386 51.9812 8.1118 51.9241 7.9798C51.867 7.8478 51.7841 7.72741 51.6804 7.62776Z" fill="#795FFF"/>
<path d="M33.5833 23.8333H30.3333C29.7587 23.8333 29.2076 24.0616 28.8013 24.4679C28.3949 24.8742 28.1667 25.4253 28.1667 26H35.75C35.75 25.4253 35.5217 24.8742 35.1154 24.4679C34.7091 24.0616 34.158 23.8333 33.5833 23.8333Z" fill="#795FFF"/>
<path d="M51.9653 32.2205C51.3326 28.7908 50.2683 25.4551 48.7977 22.2928C47.4717 19.4464 45.8271 16.7595 43.8956 14.2837C43.5791 13.8888 43.1787 13.5694 42.7233 13.3486C42.268 13.1279 41.7691 13.0114 41.2631 13.0076C15.0583 13.4171 5.00933 28.4375 1.43649 36.8333H45.7286C46.9262 35.6711 48.4706 34.9316 50.1269 34.7273C50.4162 34.6922 50.6953 34.5983 50.9469 34.4512C51.1985 34.3041 51.4174 34.1071 51.5899 33.8722C51.7625 33.6373 51.8851 33.3696 51.9502 33.0855C52.0153 32.8015 52.0216 32.5071 51.9686 32.2205H51.9653ZM43.1784 27.2079C42.9818 27.5036 42.7149 27.746 42.4016 27.9133C42.0883 28.0806 41.7385 28.1677 41.3833 28.1667H17.3442C17.1195 28.1687 16.8998 28.101 16.7154 27.9727C16.531 27.8444 16.391 27.662 16.3149 27.4506C16.2387 27.2393 16.2302 27.0095 16.2903 26.7931C16.3505 26.5767 16.4765 26.3843 16.6508 26.2427C22.4651 21.6103 29.9823 19.0114 39.0509 18.5022C39.2408 18.4928 39.43 18.5319 39.6006 18.6159C39.7712 18.6999 39.9175 18.8259 40.0259 18.9822C41.0961 20.5535 42.038 22.2084 42.8426 23.9308C43.0246 24.3288 43.1997 24.73 43.368 25.1344C43.5102 25.4688 43.5674 25.8332 43.5343 26.195C43.5012 26.5569 43.3789 26.9049 43.1784 27.2079Z" fill="#795FFF"/>
<path d="M0.594742 39C0.392159 39.5785 0.223159 40.105 0.0920756 40.5524C-0.00373902 40.8765 -0.0224123 41.2185 0.0375482 41.5511C0.0975087 41.8837 0.23444 42.1977 0.437399 42.4679C0.640357 42.7381 0.903714 42.9571 1.20642 43.1074C1.50913 43.2577 1.84279 43.335 2.18074 43.3333H41.3172C41.8496 43.3367 42.3645 43.1431 42.7626 42.7897C43.1608 42.4363 43.4143 41.9481 43.4742 41.4191C43.567 40.5797 43.8002 39.762 44.1642 39H0.594742Z" fill="#795FFF"/>
</g>
<defs>
<clipPath id="clip0_880_234">
<rect width="52" height="52" fill="white"/>
</clipPath>
</defs>
</svg>
