<svg width="52" height="52" viewBox="0 0 52 52" fill="none" xmlns="http://www.w3.org/2000/svg">
<g clip-path="url(#clip0_880_198)">
<path d="M43 0H9.57143C8.09379 0 6.67668 0.586988 5.63183 1.63183C4.58699 2.67668 4 4.09379 4 5.57143V46.4286C4 47.9062 4.58699 49.3233 5.63183 50.3682C6.67668 51.413 8.09379 52 9.57143 52H43C44.4776 52 45.8947 51.413 46.9396 50.3682C47.9844 49.3233 48.5714 47.9062 48.5714 46.4286V5.57143C48.5714 4.09379 47.9844 2.67668 46.9396 1.63183C45.8947 0.586988 44.4776 0 43 0ZM35.5714 5.57143C35.9387 5.57143 36.2978 5.68035 36.6032 5.88441C36.9086 6.08848 37.1466 6.37853 37.2872 6.71787C37.4278 7.05722 37.4645 7.43063 37.3929 7.79088C37.3212 8.15113 37.1444 8.48204 36.8846 8.74177C36.6249 9.0015 36.294 9.17837 35.9337 9.25003C35.5735 9.32169 35.2001 9.28491 34.8607 9.14435C34.5214 9.00379 34.2313 8.76575 34.0273 8.46034C33.8232 8.15494 33.7143 7.79588 33.7143 7.42857C33.7143 6.93603 33.9099 6.46365 34.2582 6.11537C34.6065 5.76709 35.0789 5.57143 35.5714 5.57143ZM9.57143 7.42857C9.57143 6.93603 9.76709 6.46365 10.1154 6.11537C10.4637 5.76709 10.936 5.57143 11.4286 5.57143H17C17.4925 5.57143 17.9649 5.76709 18.3132 6.11537C18.6615 6.46365 18.8571 6.93603 18.8571 7.42857C18.8571 7.92112 18.6615 8.39349 18.3132 8.74177C17.9649 9.09005 17.4925 9.28571 17 9.28571H11.4286C10.936 9.28571 10.4637 9.09005 10.1154 8.74177C9.76709 8.39349 9.57143 7.92112 9.57143 7.42857ZM26.2857 46.4286C23.3472 46.4286 20.4748 45.5572 18.0315 43.9247C15.5883 42.2922 13.684 39.9718 12.5595 37.257C11.435 34.5422 11.1408 31.5549 11.714 28.6729C12.2873 25.7909 13.7023 23.1437 15.7801 21.0658C17.8579 18.988 20.5052 17.573 23.3872 16.9998C26.2692 16.4265 29.2565 16.7207 31.9713 17.8452C34.6861 18.9697 37.0065 20.874 38.639 23.3172C40.2715 25.7605 41.1429 28.633 41.1429 31.5714C41.1384 35.5104 39.5717 39.2868 36.7864 42.0721C34.0011 44.8574 30.2247 46.4241 26.2857 46.4286ZM41.1429 9.28571C40.7755 9.28571 40.4165 9.17679 40.1111 8.97273C39.8057 8.76866 39.5676 8.47862 39.4271 8.13927C39.2865 7.79992 39.2497 7.42651 39.3214 7.06626C39.3931 6.70601 39.5699 6.3751 39.8297 6.11537C40.0894 5.85565 40.4203 5.67877 40.7805 5.60711C41.1408 5.53545 41.5142 5.57223 41.8536 5.71279C42.1929 5.85336 42.4829 6.09139 42.687 6.3968C42.8911 6.7022 43 7.06126 43 7.42857C43 7.92112 42.8043 8.39349 42.4561 8.74177C42.1078 9.09005 41.6354 9.28571 41.1429 9.28571Z" fill="#795FFF"/>
<path d="M26.3432 31.5715C24.6054 30.6963 22.6857 30.2433 20.74 30.2491C18.7942 30.2549 16.8773 30.7194 15.1447 31.6049C15.1464 34.5602 16.322 37.3937 18.4129 39.4822C19.4482 40.5163 20.6771 41.3363 22.0293 41.8955C23.3816 42.4547 24.8307 42.7421 26.294 42.7412C27.7573 42.7404 29.2061 42.4513 30.5577 41.8906C31.9093 41.3298 33.1372 40.5083 34.1713 39.473C35.2054 38.4377 36.0255 37.2088 36.5847 35.8566C37.1439 34.5043 37.4312 33.0552 37.4304 31.5919C35.7083 32.4517 33.8092 32.8975 31.8844 32.894C29.9596 32.8905 28.0622 32.4376 26.3432 31.5715Z" fill="#795FFF"/>
</g>
<defs>
<clipPath id="clip0_880_198">
<rect width="52" height="52" fill="white"/>
</clipPath>
</defs>
</svg>
