<svg width="29" height="28" viewBox="0 0 29 28" fill="none" xmlns="http://www.w3.org/2000/svg">
<path d="M18.9167 9.33325C20.7732 9.33325 22.5537 10.0708 23.8664 11.3835C25.1792 12.6963 25.9167 14.4767 25.9167 16.3333V24.4999H21.25V16.3333C21.25 15.7144 21.0042 15.1209 20.5666 14.6833C20.129 14.2458 19.5355 13.9999 18.9167 13.9999C18.2978 13.9999 17.7043 14.2458 17.2667 14.6833C16.8292 15.1209 16.5833 15.7144 16.5833 16.3333V24.4999H11.9167V16.3333C11.9167 14.4767 12.6542 12.6963 13.9669 11.3835C15.2797 10.0708 17.0601 9.33325 18.9167 9.33325Z" stroke="#727272" stroke-width="1.5" stroke-linecap="round" stroke-linejoin="round"/>
<path d="M7.25 10.4999H2.58333V24.4999H7.25V10.4999Z" stroke="#727272" stroke-width="1.5" stroke-linecap="round" stroke-linejoin="round"/>
<path d="M4.91666 6.99992C6.20533 6.99992 7.25 5.95525 7.25 4.66659C7.25 3.37792 6.20533 2.33325 4.91666 2.33325C3.628 2.33325 2.58333 3.37792 2.58333 4.66659C2.58333 5.95525 3.628 6.99992 4.91666 6.99992Z" stroke="#727272" stroke-width="1.5" stroke-linecap="round" stroke-linejoin="round"/>
</svg>
