<svg width="185" height="41" viewBox="0 0 185 41" fill="none" xmlns="http://www.w3.org/2000/svg">
<path d="M6.40441 36.9376L0 12.699H4.74379L9.10727 31.9848L14.2314 12.699H19.1145L24.0993 31.9848L28.4628 12.699H33.2414L26.6628 36.9376H21.3993L16.5859 18.9669L11.633 36.9376H6.40441Z" fill="white"/>
<path d="M33.343 36.9376L42.2064 12.699H47.1912L56.0546 36.9376H51.3456L49.4063 31.3287H39.9535L37.9794 36.9376H33.3401H33.343ZM41.1671 27.8652H48.1957L44.6654 17.7882L41.1671 27.8652Z" fill="white"/>
<path d="M68.3118 37.3529C66.5351 37.3529 64.9644 37.0481 63.6029 36.4355C62.2413 35.8229 61.1671 34.9462 60.3832 33.8052C59.5994 32.6643 59.1929 31.2737 59.1726 29.6334H63.8467C63.8932 30.7656 64.3025 31.7178 65.0748 32.4901C65.847 33.2623 66.9154 33.6485 68.277 33.6485C69.4557 33.6485 70.3905 33.3668 71.0814 32.8007C71.7724 32.2346 72.1208 31.4798 72.1208 30.5333C72.1208 29.5869 71.8159 28.7682 71.2034 28.2137C70.5908 27.6592 69.7779 27.2092 68.7618 26.8637C67.7457 26.5182 66.6599 26.1495 65.5073 25.7547C63.6377 25.1073 62.2122 24.277 61.231 23.2609C60.2497 22.2448 59.759 20.8948 59.759 19.2109C59.7358 17.7797 60.0755 16.5516 60.781 15.5239C61.4864 14.4962 62.4474 13.7007 63.6725 13.1346C64.8948 12.5685 66.3028 12.2869 67.8967 12.2869C69.4905 12.2869 70.9363 12.5743 72.173 13.152C73.4069 13.7297 74.3766 14.5368 75.082 15.5762C75.7875 16.6155 76.162 17.8494 76.2085 19.2806H71.4647C71.4414 18.4271 71.1134 17.6694 70.4776 17.0132C69.8418 16.3571 68.9592 16.0262 67.8299 16.0262C66.8602 16.0029 66.0473 16.241 65.3883 16.7345C64.7293 17.231 64.4012 17.9539 64.4012 18.8974C64.4012 19.7045 64.6538 20.3461 65.1619 20.8193C65.6699 21.2925 66.3609 21.6903 67.2405 22.0154C68.1173 22.3377 69.1218 22.6861 70.254 23.0548C71.4531 23.4699 72.5505 23.9547 73.5433 24.5092C74.5362 25.0638 75.3317 25.7954 75.9327 26.707C76.5336 27.6186 76.8326 28.7914 76.8326 30.2227C76.8326 31.4914 76.5104 32.6701 75.863 33.7559C75.2156 34.8417 74.2575 35.7126 72.9888 36.3687C71.7201 37.0278 70.1611 37.3558 68.3147 37.3558L68.3118 37.3529Z" fill="white"/>
<path d="M81.5735 36.9376V12.699H86.0066V22.7759H96.879V12.699H101.312V36.9376H96.879V26.3758H86.0066V36.9376H81.5735Z" fill="white"/>
<path d="M112.527 36.9379V16.2673H105.464V12.7021H124.059V16.2673H116.96V36.9379H112.527Z" fill="white"/>
<path d="M164.52 36.9376V12.699H168.953L180.345 29.7697V12.699H184.779V36.9376H180.345L168.953 19.9018V36.9376H164.52Z" fill="white"/>
<path d="M144.291 9.13989C135.631 9.13989 128.611 16.1598 128.611 24.82C128.611 33.4801 135.631 40.5 144.291 40.5C152.951 40.5 159.971 33.4801 159.971 24.82C159.971 16.1598 152.951 9.13989 144.291 9.13989ZM144.291 36.2585C137.974 36.2585 132.852 31.1373 132.852 24.82C132.852 18.5026 137.974 13.3814 144.291 13.3814C150.608 13.3814 155.729 18.5026 155.729 24.82C155.729 31.1373 150.608 36.2585 144.291 36.2585Z" fill="#D0D2D3"/>
<path d="M154.13 24.8227C154.13 25.5108 154.054 26.1785 153.927 26.8317C153.898 26.8404 153.88 26.8492 153.851 26.8608C152.948 27.122 152.002 27.1772 151.064 27.1946C150.097 27.2033 149.131 27.1772 148.193 26.9711C146.918 26.6837 145.757 26.0885 144.604 25.4556C143.388 24.7966 142.177 24.0998 140.851 23.7079C139.727 23.3828 138.546 23.2811 137.376 23.3276C136.391 23.374 135.367 23.5308 134.496 23.9605C134.931 18.9235 139.152 14.981 144.294 14.981C149.435 14.981 153.941 19.1906 154.127 24.4627C154.136 24.5847 154.136 24.7037 154.136 24.8256L154.13 24.8227Z" fill="#4624F4"/>
<path d="M153.924 26.8319C152.995 31.3028 149.035 34.6589 144.285 34.6589C138.856 34.6589 134.452 30.2519 134.452 24.8258C134.452 24.5384 134.461 24.2394 134.49 23.9607C135.364 23.5339 136.386 23.3742 137.37 23.3278C138.54 23.2813 139.721 23.383 140.845 23.7081C143.429 24.46 145.565 26.3848 148.187 26.9713C149.125 27.1745 150.091 27.2035 151.058 27.1948C151.996 27.1774 152.945 27.1193 153.845 26.861C153.874 26.8523 153.892 26.8435 153.921 26.8319H153.924Z" fill="#8871FF"/>
<path d="M154.13 24.8227C154.13 25.5108 154.054 26.1785 153.926 26.8317C153.897 26.8404 153.88 26.8492 153.851 26.8608C152.948 27.1221 152.002 27.1772 151.064 27.1946C150.097 27.2033 149.13 27.1772 148.193 26.9711C146.918 26.6837 145.757 26.0885 144.604 25.4556H144.642C145.359 25.4556 146.065 25.3802 146.77 25.2611C147.589 25.1218 148.405 24.9273 149.197 24.6863C149.923 24.4627 150.637 24.1928 151.38 24.0534C152.124 23.914 152.905 23.8966 153.622 24.184C153.799 24.2479 153.976 24.3408 154.124 24.4627C154.133 24.5847 154.133 24.7037 154.133 24.8256L154.13 24.8227Z" fill="#6548FF"/>
<path d="M128.611 3.64414C128.611 5.38024 130.019 6.78829 131.755 6.78829H156.821C158.557 6.78829 159.965 5.38024 159.965 3.64414C159.965 1.90804 158.557 0.5 156.821 0.5H131.755C130.019 0.5 128.611 1.90804 128.611 3.64414ZM151.459 5.23508C150.579 5.23508 149.868 4.5209 149.868 3.64414C149.868 2.76738 150.582 2.0532 151.459 2.0532C152.336 2.0532 153.05 2.76738 153.05 3.64414C153.05 4.5209 152.336 5.23508 151.459 5.23508ZM156.327 5.23508C155.448 5.23508 154.737 4.5209 154.737 3.64414C154.737 2.76738 155.451 2.0532 156.327 2.0532C157.204 2.0532 157.918 2.76738 157.918 3.64414C157.918 4.5209 157.204 5.23508 156.327 5.23508Z" fill="#D0D2D3"/>
</svg>
