<svg width="52" height="52" viewBox="0 0 52 52" fill="none" xmlns="http://www.w3.org/2000/svg">
<g clip-path="url(#clip0_880_121)">
<path d="M41.7431 15.743C41.7431 7.04843 34.6947 0 26.0001 0C17.3054 0 10.2569 7.04843 10.2569 15.743C10.2569 24.4376 17.3053 31.4862 25.9999 31.4862C34.6946 31.4862 41.7431 24.4377 41.7431 15.743ZM27.5235 23.2083V25.1891H24.4768V23.2123C22.3299 22.8878 20.6789 21.0303 20.6789 18.7943H23.7256C23.7256 19.5783 24.3634 20.2162 25.1474 20.2162H26.8237C27.6369 20.2162 28.2985 19.5544 28.2985 18.7412C28.2985 17.928 27.6368 17.2662 26.8237 17.2662H25.1767C22.6834 17.2662 20.6552 15.2379 20.6552 12.7447C20.6552 10.4895 22.3149 8.61479 24.4769 8.27743V6.29673H27.5236V8.28423C29.668 8.63754 31.3093 10.5036 31.3093 12.7465H28.2627C28.2627 11.9321 27.6002 11.2697 26.7859 11.2697H25.1767C24.3634 11.2697 23.7018 11.9314 23.7018 12.7447C23.7018 13.5579 24.3635 14.2196 25.1767 14.2196H26.8237C29.3168 14.2196 31.3451 16.248 31.3451 18.7412C31.3451 20.9964 29.6854 22.8709 27.5235 23.2083Z" fill="#111827"/>
<path d="M38.2309 30.0073C36.7585 31.2727 35.1104 32.2954 33.3148 33.0549C31.9437 33.6349 30.5223 34.0443 29.0656 34.2832V41.5945H26.0063V44.3581L33.6483 52L41.2902 44.3581V41.5945H38.2309V30.0073Z" fill="#866EFF"/>
<path d="M22.9344 34.2832C21.4777 34.0443 20.0564 33.6348 18.6852 33.0549C16.8896 32.2954 15.2415 31.2727 13.7691 30.0073V36.7205H10.7098V39.4841L18.3517 47.126L25.9937 39.4841V36.7205H22.9344V34.2832Z" fill="#866EFF"/>
</g>
<defs>
<clipPath id="clip0_880_121">
<rect width="52" height="52" fill="white"/>
</clipPath>
</defs>
</svg>
