<svg width="52" height="52" viewBox="0 0 52 52" fill="none" xmlns="http://www.w3.org/2000/svg">
<path d="M31.6363 36.7656C32.9217 37.4416 34.424 36.3496 34.1786 34.918L33.2581 29.5498C33.1606 28.981 33.3491 28.4009 33.7618 27.9987L37.6618 24.197C38.7018 23.183 38.1282 21.4166 36.6909 21.2078L31.3008 20.4246C30.7304 20.3417 30.2364 19.9834 29.9813 19.4658L27.5706 14.5811C26.9279 13.2786 25.0705 13.2786 24.4278 14.5811L22.0171 19.4658C21.762 19.9834 21.2688 20.3417 20.6976 20.4246L15.3075 21.2078C13.8702 21.4166 13.2966 23.183 14.3366 24.197L18.2366 27.9987C18.6493 28.4009 18.8378 28.981 18.7403 29.5498L17.8198 34.918C17.5744 36.3496 19.0767 37.4408 20.3621 36.7656L25.1834 34.2306C25.6937 33.9625 26.3039 33.9625 26.8141 34.2306L31.6363 36.7656Z" fill="black"/>
<path d="M26.8125 7.29869V2.4375C26.8125 1.989 26.4485 1.625 26 1.625C25.5515 1.625 25.1875 1.989 25.1875 2.4375V7.29869C25.1875 7.74719 25.5515 8.11119 26 8.11119C26.4485 8.11119 26.8125 7.74719 26.8125 7.29869Z" fill="#866EFF"/>
<path d="M25.1875 44.7013V49.5625C25.1875 50.011 25.5515 50.375 26 50.375C26.4485 50.375 26.8125 50.011 26.8125 49.5625V44.7013C26.8125 44.2528 26.4485 43.8888 26 43.8888C25.5515 43.8888 25.1875 44.2528 25.1875 44.7013Z" fill="#866EFF"/>
<path d="M49.5625 25.1875H44.7013C44.2528 25.1875 43.8888 25.5515 43.8888 26C43.8888 26.4485 44.2528 26.8125 44.7013 26.8125H49.5625C50.011 26.8125 50.375 26.4485 50.375 26C50.375 25.5515 50.011 25.1875 49.5625 25.1875Z" fill="#866EFF"/>
<path d="M8.11119 26C8.11119 25.5515 7.74719 25.1875 7.29869 25.1875H2.4375C1.989 25.1875 1.625 25.5515 1.625 26C1.625 26.4485 1.989 26.8125 2.4375 26.8125H7.29869C7.74719 26.8125 8.11119 26.4485 8.11119 26Z" fill="#866EFF"/>
<path d="M43.2356 8.76439C42.9179 8.4467 42.4044 8.4467 42.0867 8.76439L38.649 12.2021C38.3313 12.5198 38.3313 13.0333 38.649 13.351C38.8075 13.5094 39.0155 13.589 39.2235 13.589C39.4315 13.589 39.6395 13.5094 39.7979 13.351L43.2356 9.91326C43.5533 9.59558 43.5533 9.08208 43.2356 8.76439Z" fill="#866EFF"/>
<path d="M12.2021 38.649L8.76445 42.0867C8.44676 42.4044 8.44676 42.9179 8.76445 43.2356C8.92289 43.394 9.13089 43.4737 9.33889 43.4737C9.54689 43.4737 9.75489 43.394 9.91332 43.2356L13.351 39.7979C13.6687 39.4802 13.6687 38.9667 13.351 38.649C13.0333 38.3313 12.5198 38.3313 12.2021 38.649Z" fill="#866EFF"/>
<path d="M43.2356 42.0867L39.7979 38.649C39.4802 38.3313 38.9667 38.3313 38.649 38.649C38.3313 38.9667 38.3313 39.4802 38.649 39.7979L42.0867 43.2356C42.2452 43.394 42.4532 43.4737 42.6612 43.4737C42.8692 43.4737 43.0772 43.394 43.2356 43.2356C43.5533 42.9179 43.5533 42.4044 43.2356 42.0867Z" fill="#866EFF"/>
<path d="M13.351 12.2021L9.91332 8.76439C9.59564 8.4467 9.08214 8.4467 8.76445 8.76439C8.44676 9.08208 8.44676 9.59558 8.76445 9.91326L12.2021 13.351C12.3606 13.5094 12.5686 13.589 12.7766 13.589C12.9846 13.589 13.1926 13.5094 13.351 13.351C13.6687 13.0333 13.6687 12.5198 13.351 12.2021Z" fill="#866EFF"/>
<path d="M33.0492 9.49161C33.3702 9.49161 33.674 9.30067 33.8024 8.98461L35.6354 4.48173C35.8044 4.06573 35.6045 3.59204 35.1894 3.42304C34.7734 3.25242 34.2997 3.45392 34.1307 3.86911L32.2977 8.37198C32.1287 8.78798 32.3285 9.26167 32.7437 9.43067C32.8445 9.47129 32.9477 9.49079 33.0492 9.49079V9.49161Z" fill="#866EFF"/>
<path d="M18.1976 43.0146L16.3646 47.5175C16.1956 47.9335 16.3954 48.4071 16.8106 48.5761C16.9114 48.6168 17.0146 48.6363 17.1161 48.6363C17.4371 48.6363 17.7409 48.4453 17.8693 48.1293L19.7023 43.6264C19.8713 43.2104 19.6714 42.7367 19.2563 42.5677C18.8403 42.3979 18.3666 42.5978 18.1976 43.0138V43.0146Z" fill="#866EFF"/>
<path d="M47.8238 35.6955C48.1447 35.6955 48.4486 35.5046 48.577 35.1885C48.746 34.7733 48.5461 34.2989 48.1309 34.1299L43.628 32.2969C43.212 32.127 42.7383 32.3277 42.5693 32.7429C42.4003 33.1581 42.6002 33.6326 43.0154 33.8016L47.5183 35.6346C47.619 35.6752 47.7222 35.6955 47.8238 35.6955Z" fill="#866EFF"/>
<path d="M3.86996 17.8701L8.37283 19.7031C8.47358 19.7438 8.57677 19.7633 8.67833 19.7633C8.99927 19.7633 9.30314 19.5723 9.43152 19.2563C9.60052 18.8411 9.40064 18.3666 8.98546 18.1976L4.48258 16.3646C4.06577 16.1948 3.59289 16.3946 3.42389 16.8106C3.25489 17.2258 3.45477 17.7011 3.86996 17.8701Z" fill="#866EFF"/>
<path d="M48.4616 16.5336C48.2869 16.12 47.8099 15.9242 47.3972 16.1005L42.9171 17.9888C42.5035 18.1626 42.3093 18.6396 42.484 19.0531C42.6148 19.3635 42.9162 19.5504 43.2331 19.5504C43.3379 19.5504 43.4452 19.5301 43.5484 19.4862L48.0285 17.598C48.4421 17.4241 48.6362 16.9471 48.4616 16.5336Z" fill="#866EFF"/>
<path d="M3.53843 35.4664C3.66924 35.7768 3.97068 35.9636 4.28756 35.9636C4.39237 35.9636 4.49962 35.9433 4.60281 35.8994L9.08293 34.0112C9.49649 33.8373 9.69068 33.3604 9.51599 32.9468C9.34212 32.5332 8.86356 32.3382 8.45162 32.5137L3.97149 34.402C3.55793 34.5759 3.36374 35.0528 3.53843 35.4664Z" fill="#866EFF"/>
<path d="M34.4021 48.0285C34.5329 48.3389 34.8343 48.5257 35.1512 48.5257C35.256 48.5257 35.3633 48.5054 35.4665 48.4616C35.88 48.2877 36.0742 47.8107 35.8995 47.3972L34.0113 42.9171C33.8374 42.5035 33.3588 42.3093 32.9469 42.484C32.5333 42.6579 32.3391 43.1348 32.5138 43.5484L34.4021 48.0285Z" fill="#866EFF"/>
<path d="M18.7379 9.58016C18.8427 9.58016 18.9499 9.55984 19.0531 9.51597C19.4667 9.34209 19.6609 8.86516 19.4862 8.4516L17.5979 3.97147C17.4241 3.55791 16.9463 3.36291 16.5336 3.53841C16.12 3.71228 15.9258 4.18922 16.1005 4.60278L17.9888 9.08291C18.1196 9.39328 18.421 9.58016 18.7379 9.58016Z" fill="#866EFF"/>
</svg>
