<svg width="52" height="52" viewBox="0 0 52 52" fill="none" xmlns="http://www.w3.org/2000/svg">
<path d="M48.9244 30.2813C52.1962 32.5899 52.982 37.1218 50.6794 40.4021C49.0914 42.7002 46.4618 44.0501 43.6734 43.9986H23.2721L27.5131 35.4757C27.9626 34.5497 27.589 33.4317 26.6723 32.9657C26.663 32.961 26.6537 32.9564 26.6431 32.9517C25.7242 32.5033 24.6161 32.8873 24.1689 33.8086L19.0872 43.9986H17.6674L23.7765 31.7294C24.2261 30.8034 23.8524 29.6854 22.9358 29.2194C22.9265 29.2147 22.9171 29.2101 22.9066 29.2054C21.9877 28.757 20.8796 29.141 20.4324 30.0623L13.4825 43.9986H12.0626L20.04 27.9832C20.4896 27.0571 20.1159 25.9391 19.1993 25.4731C19.1923 25.4696 19.1853 25.4661 19.1771 25.4626C18.257 25.0107 17.1454 25.3935 16.6959 26.316L7.87771 43.9986H7.22382C7.0837 43.9986 6.94358 43.9951 6.80463 43.9869C2.82174 43.7551 -0.218839 40.3295 0.0123576 36.3374L1.15199 22.551C1.45909 18.7954 4.58724 15.9049 8.34477 15.9013H14.7902C16.1833 15.9002 17.435 15.0455 17.9476 13.7472L19.4982 9.77614C19.6045 9.49049 19.7843 9.23761 20.0214 9.04561C20.2222 8.8864 20.4359 8.74357 20.6589 8.6183C22.9942 7.30944 25.9461 8.1465 27.2515 10.4879L28.5966 12.923L29.5121 14.5714L29.8671 15.2083L30.7825 16.8566L31.1375 17.4935L31.9221 18.9171C31.9548 18.992 31.9992 19.0623 32.0529 19.1232C32.1638 19.3374 32.2888 19.5434 32.4266 19.7413C32.7535 20.2751 33.1225 20.7821 33.5288 21.2585C35.1869 23.3073 37.3331 24.9042 39.7688 25.904L47.8023 29.6315C48.1946 29.8142 48.5706 30.0319 48.9244 30.2813Z" fill="#795FFF"/>
<path d="M39.7269 19.9118L39.9985 21L40.272 19.9079C40.4919 19.0294 40.9463 18.2271 41.5867 17.5867C42.227 16.9463 43.0293 16.4919 43.9077 16.2719L45 15.9985L43.9125 15.7269C43.033 15.5073 42.2297 15.0528 41.5885 14.4119C40.9474 13.771 40.4926 12.9678 40.2728 12.0884L40 11L39.7276 12.0895C39.5079 12.9686 39.0534 13.7715 38.4127 14.4123C37.772 15.0531 36.9692 15.5077 36.0901 15.7276L35 16L36.0884 16.2721C36.9678 16.492 37.771 16.9468 38.4118 17.5879C39.0527 18.229 39.5073 19.0322 39.7269 19.9118Z" fill="#795FFF"/>
<path d="M7.72688 11.1294L7.9985 12L8.272 11.1263C8.49193 10.4235 8.94632 9.78167 9.58667 9.26936C10.227 8.75705 11.0293 8.39349 11.9078 8.2175L13 7.9988L11.9125 7.7815C11.033 7.60586 10.2297 7.24222 9.58855 6.7295C8.94743 6.21678 8.49261 5.57427 8.27275 4.8707L8 4L7.72762 4.8716C7.50779 5.5748 7.05324 6.21699 6.41255 6.72954C5.77186 7.24209 4.96912 7.60573 4.09013 7.7816L3 8L4.08838 8.2177C4.96782 8.39358 5.77095 8.75742 6.41185 9.27029C7.05275 9.78317 7.5073 10.4258 7.72688 11.1294Z" fill="#795FFF"/>
</svg>
