<svg width="52" height="52" viewBox="0 0 52 52" fill="none" xmlns="http://www.w3.org/2000/svg">
<path d="M47.125 17.1639H45.3984C42.706 17.1639 40.5234 19.3465 40.5234 22.0389V25.9998C40.5234 27.4021 39.3867 28.5389 37.9844 28.5389H14.0156C12.6134 28.5389 11.4766 27.4021 11.4766 25.9998V22.0389C11.4766 19.3465 9.29398 17.1639 6.60156 17.1639H4.875C2.18258 17.1639 0 19.3465 0 22.0389V27.6248C0 33.467 3.65442 38.455 8.80171 40.4297L7.47266 45.0814C7.24151 45.8903 7.70991 46.7336 8.51896 46.9646C9.32973 47.1964 10.1717 46.7254 10.4022 45.9184L11.7515 41.1958C12.3915 41.2874 13.0455 41.3358 13.7108 41.3358H38.289C38.9543 41.3358 39.6083 41.2874 40.2483 41.1958L41.5976 45.9184C41.7887 46.5875 42.3987 47.0237 43.0617 47.0237C44.0755 47.0237 44.8047 46.0524 44.5272 45.0813L43.1982 40.4296C48.3456 38.4549 52 33.467 52 27.6248V22.0389C52 19.3465 49.8174 17.1639 47.125 17.1639Z" fill="#795FFF"/>
<path d="M14.5234 22.0389V25.492H37.4766V22.0389C37.4766 17.6708 41.0303 14.117 45.3984 14.117H47.0101C46.7452 9.03197 42.5249 4.97638 37.375 4.97638H14.625C9.47517 4.97638 5.25484 9.03197 4.98987 14.117H6.60156C10.9697 14.117 14.5234 17.6707 14.5234 22.0389ZM34.125 13.1016C34.9663 13.1016 35.6484 13.7837 35.6484 14.625C35.6484 15.4664 34.9663 16.1485 34.125 16.1485C33.2837 16.1485 32.6016 15.4664 32.6016 14.625C32.6016 13.7837 33.2837 13.1016 34.125 13.1016ZM26 13.1016C26.8413 13.1016 27.5234 13.7837 27.5234 14.625C27.5234 15.4664 26.8413 16.1485 26 16.1485C25.1587 16.1485 24.4766 15.4664 24.4766 14.625C24.4766 13.7837 25.1587 13.1016 26 13.1016ZM17.875 13.1016C18.7163 13.1016 19.3984 13.7837 19.3984 14.625C19.3984 15.4664 18.7163 16.1485 17.875 16.1485C17.0337 16.1485 16.3516 15.4664 16.3516 14.625C16.3516 13.7837 17.0337 13.1016 17.875 13.1016Z" fill="#795FFF"/>
</svg>
