<svg width="52" height="52" viewBox="0 0 52 52" fill="none" xmlns="http://www.w3.org/2000/svg">
<g clip-path="url(#clip0_880_169)">
<path d="M7.3125 14.4219C11.2389 14.4219 14.4219 11.2389 14.4219 7.3125C14.4219 3.3861 11.2389 0.203125 7.3125 0.203125C3.3861 0.203125 0.203125 3.3861 0.203125 7.3125C0.203125 11.2389 3.3861 14.4219 7.3125 14.4219Z" fill="#111827"/>
<path d="M50.9641 32.5203C50.7 32.2562 50.3865 32.0467 50.0414 31.9038C49.6964 31.7608 49.3266 31.6873 48.9531 31.6873C48.5797 31.6873 48.2098 31.7608 47.8648 31.9038C47.5198 32.0467 47.2063 32.2562 46.9422 32.5203L40.4625 39H3.04688C2.29267 39 1.56935 39.2996 1.03604 39.8329C0.502733 40.3662 0.203125 41.0895 0.203125 41.8437C0.203125 42.5979 0.502733 43.3212 1.03604 43.8545C1.56935 44.3879 2.29267 44.6875 3.04688 44.6875H40.4625C41.2094 44.6875 41.949 44.5404 42.6391 44.2547C43.3292 43.9689 43.9562 43.55 44.4844 43.0218L50.9641 36.5421C51.2282 36.2781 51.4377 35.9646 51.5806 35.6195C51.7235 35.2745 51.7971 34.9047 51.7971 34.5312C51.7971 34.1577 51.7235 33.7879 51.5806 33.4429C51.4377 33.0978 51.2282 32.7843 50.9641 32.5203Z" fill="#111827"/>
<path d="M17.5581 15.7723H17.5671C18.8275 15.205 20.2369 15.058 21.5872 15.353C22.9376 15.6479 24.1573 16.3691 25.0664 17.4103C26.9352 11.297 29.7456 5.6477 32.8404 2.68045C24.7585 2.41395 17.5256 6.94851 15.6089 14.1042V14.1123C15.5398 14.3712 15.5454 14.6444 15.6251 14.9002C15.7049 15.156 15.8555 15.384 16.0595 15.5577C16.2635 15.7314 16.5125 15.8438 16.7778 15.8817C17.043 15.9197 17.3136 15.8818 17.5581 15.7723Z" fill="#866EFF"/>
<path d="M48.7906 24.1362L48.7955 24.1427C48.9526 24.3597 49.168 24.5278 49.4167 24.6275C49.6654 24.7272 49.9372 24.7545 50.2007 24.7061C50.4643 24.6577 50.7087 24.5357 50.9058 24.3542C51.1028 24.1727 51.2445 23.939 51.3143 23.6804V23.673C53.235 16.5165 49.2375 8.9733 42.1086 5.15942C43.3046 9.27717 42.9122 15.5732 41.4757 21.8035C42.7839 21.3567 44.2012 21.3422 45.5183 21.7622C46.8354 22.1822 47.9826 23.0145 48.7906 24.1362Z" fill="#866EFF"/>
<path d="M27.7875 18.2341C29.7104 17.8608 31.6931 17.9302 33.5853 18.437C35.4774 18.9438 37.2294 19.8747 38.7083 21.1591C40.5673 13.1153 40.1074 6.98665 38.7814 4.53209L39.4623 1.99221C39.5185 1.78171 39.5255 1.56112 39.4829 1.34747C39.4402 1.13383 39.349 0.932853 39.2163 0.76008C39.0835 0.587308 38.9129 0.447365 38.7174 0.351067C38.522 0.254768 38.3071 0.204693 38.0892 0.204712C37.7759 0.204918 37.4715 0.308573 37.2232 0.499574C36.9749 0.690576 36.7966 0.958231 36.7161 1.26096L36.0344 3.80409C33.657 5.26577 30.1998 10.3382 27.7875 18.2341Z" fill="#866EFF"/>
<path d="M30.3063 36.1563L34.1933 21.6491C33.3168 21.2766 32.3919 21.0304 31.4462 20.9178L27.3626 36.1563H30.3063Z" fill="#866EFF"/>
<path d="M23.6519 50.0069C23.5993 50.1886 23.5835 50.3789 23.6054 50.5667C23.6273 50.7545 23.6864 50.936 23.7794 51.1007C23.8723 51.2654 23.9971 51.4099 24.1465 51.5258C24.2959 51.6416 24.467 51.7265 24.6496 51.7755C24.8322 51.8244 25.0228 51.8365 25.2102 51.8109C25.3975 51.7853 25.5779 51.7226 25.7407 51.6265C25.9035 51.5303 26.0455 51.4027 26.1584 51.251C26.2713 51.0993 26.3528 50.9266 26.3981 50.7431L27.2586 47.5312H24.3149L23.6519 50.0069Z" fill="#111827"/>
<path d="M2.82831 49.6697C2.73392 49.832 2.67258 50.0113 2.64782 50.1973C2.62306 50.3833 2.63538 50.5724 2.68406 50.7537C2.73274 50.935 2.81683 51.1048 2.93147 51.2534C3.04611 51.402 3.18903 51.5264 3.35199 51.6195C3.51496 51.7126 3.69474 51.7725 3.88097 51.7958C4.0672 51.819 4.2562 51.8052 4.43706 51.7551C4.61792 51.705 4.78707 51.6195 4.93475 51.5037C5.08243 51.3879 5.20571 51.244 5.2975 51.0802L7.32875 47.5312H4.0495L2.82831 49.6697Z" fill="#111827"/>
<path d="M46.5124 45.0125L46.4953 45.0295C45.8232 45.7029 45.0433 46.2593 44.1878 46.6756L46.7025 51.0769C46.7943 51.2407 46.9176 51.3846 47.0652 51.5004C47.2129 51.6162 47.3821 51.7017 47.5629 51.7518C47.7438 51.8019 47.9328 51.8157 48.119 51.7925C48.3053 51.7692 48.485 51.7093 48.648 51.6162C48.811 51.5231 48.9539 51.3987 49.0685 51.2501C49.1832 51.1015 49.2673 50.9317 49.3159 50.7504C49.3646 50.5691 49.3769 50.38 49.3522 50.194C49.3274 50.008 49.2661 49.8287 49.1717 49.6664L46.5124 45.0125Z" fill="#111827"/>
</g>
<defs>
<clipPath id="clip0_880_169">
<rect width="52" height="52" fill="white"/>
</clipPath>
</defs>
</svg>
