<svg width="29" height="28" viewBox="0 0 29 28" fill="none" xmlns="http://www.w3.org/2000/svg">
<g clip-path="url(#clip0_880_574)">
<path d="M27.7083 3.50001C26.5911 4.28807 25.3541 4.89081 24.045 5.28501C23.3424 4.47711 22.4085 3.90449 21.3699 3.64459C20.3312 3.3847 19.2377 3.45007 18.2374 3.83188C17.2371 4.21368 16.3782 4.89348 15.7768 5.77935C15.1754 6.66522 14.8606 7.7144 14.875 8.78501V9.95168C12.8247 10.0048 10.7931 9.55013 8.96117 8.62803C7.12919 7.70594 5.55369 6.34509 4.37499 4.66668C4.37499 4.66668 -0.291677 15.1667 10.2083 19.8333C7.80561 21.4643 4.94334 22.2821 2.04166 22.1667C12.5417 28 25.375 22.1667 25.375 8.75001C25.3739 8.42504 25.3427 8.10087 25.2817 7.78168C26.4724 6.60742 27.3126 5.12484 27.7083 3.50001Z" stroke="#727272" stroke-width="1.5" stroke-linecap="round" stroke-linejoin="round"/>
</g>
<defs>
<clipPath id="clip0_880_574">
<rect width="28" height="28" fill="white" transform="translate(0.875)"/>
</clipPath>
</defs>
</svg>
