<svg width="165" height="165" viewBox="0 0 165 165" fill="none" xmlns="http://www.w3.org/2000/svg">
<path d="M84.7597 10.1973L83.4933 1.80718L85.0892 1.98742L86.0214 9.12211L85.606 9.0752L88.1825 2.33679L89.7237 2.51085L90.7215 9.65295L90.3061 9.60604L92.8061 2.85899L94.402 3.03923L91.2962 10.9356L89.591 10.743L88.5504 3.78422L89.0314 3.83854L86.4649 10.3899L84.7597 10.1973Z" fill="white"/>
<path d="M98.6582 11.9824L103.886 5.06745L105.727 5.66759L105.874 14.3353L104.326 13.8306L104.318 11.9766L101.306 10.9945L100.196 12.4837L98.6582 11.9824ZM102.123 9.8725L104.319 10.5886L104.287 6.28579L104.685 6.41537L102.123 9.8725Z" fill="white"/>
<path d="M113.995 17.8384C113.537 17.5911 113.156 17.2773 112.853 16.8971C112.556 16.5203 112.346 16.1069 112.222 15.6567C112.109 15.2037 112.095 14.7422 112.182 14.2725L113.532 14.3885C113.483 14.8956 113.559 15.3573 113.759 15.7737C113.963 16.1837 114.271 16.5001 114.684 16.723C114.917 16.8484 115.136 16.9209 115.342 16.9405C115.558 16.9571 115.746 16.9252 115.906 16.8449C116.073 16.7681 116.205 16.6393 116.302 16.4586C116.417 16.2457 116.447 16.0366 116.391 15.8314C116.345 15.6233 116.217 15.4126 116.007 15.1993L114.863 14.0069C114.396 13.5296 114.114 13.0401 114.018 12.5384C113.922 12.0366 114.001 11.5502 114.256 11.0791C114.479 10.6661 114.775 10.3555 115.146 10.1472C115.523 9.94248 115.94 9.8505 116.395 9.87131C116.86 9.88915 117.329 10.0252 117.8 10.2795C118.232 10.5128 118.587 10.8045 118.865 11.1544C119.146 11.4979 119.343 11.8748 119.455 12.2852C119.576 12.6926 119.604 13.1118 119.538 13.5428L118.193 13.4417C118.246 13.0037 118.183 12.6112 118.003 12.2644C117.827 11.9111 117.552 11.6334 117.178 11.4314C116.959 11.313 116.744 11.2472 116.534 11.2341C116.328 11.2145 116.14 11.2464 115.97 11.3296C115.81 11.4099 115.682 11.5404 115.584 11.7211C115.476 11.9212 115.445 12.1335 115.49 12.358C115.539 12.5761 115.673 12.7985 115.893 13.0252L116.994 14.1572C117.468 14.6544 117.757 15.1441 117.864 15.6265C117.977 16.1124 117.902 16.5973 117.641 17.0813C117.418 17.4943 117.115 17.8015 116.731 18.0027C116.348 18.204 115.92 18.294 115.448 18.2727C114.976 18.2513 114.492 18.1066 113.995 17.8384Z" fill="white"/>
<path d="M122.797 22.5825L127.954 16.2137L129.117 17.1551L126.867 19.9335L129.577 22.1278L131.827 19.3495L132.998 20.2979L127.841 26.6667L126.669 25.7183L128.746 23.1537L126.036 20.9593L123.959 23.5239L122.797 22.5825Z" fill="white"/>
<path d="M134.372 32.6266L139.551 28.105L138.155 26.5058L139.149 25.6376L142.911 29.9465L141.917 30.8146L140.542 29.2402L135.363 33.7618L134.372 32.6266Z" fill="white"/>
<path d="M142.713 43.4457C142.407 42.928 142.213 42.391 142.131 41.8346C142.049 41.2781 142.073 40.7356 142.204 40.207C142.334 39.6783 142.565 39.1887 142.895 38.7381C143.235 38.2901 143.663 37.9131 144.181 37.6071C144.705 37.2973 145.242 37.1034 145.792 37.0253C146.342 36.9471 146.88 36.9783 147.406 37.1188C147.932 37.2594 148.416 37.5015 148.858 37.8452C149.306 38.1852 149.685 38.6172 149.995 39.1412C150.304 39.6651 150.5 40.2053 150.582 40.7618C150.664 41.3182 150.64 41.8607 150.509 42.3894C150.385 42.9143 150.156 43.3989 149.822 43.8431C149.492 44.2937 149.065 44.6739 148.542 44.9836C148.024 45.2896 147.485 45.4804 146.925 45.556C146.371 45.6278 145.831 45.5935 145.305 45.4529C144.779 45.3124 144.292 45.0722 143.844 44.7322C143.4 44.3985 143.023 43.9697 142.713 43.4457ZM143.887 42.7516C144.092 43.0988 144.341 43.3821 144.632 43.6016C144.93 43.8174 145.253 43.9673 145.601 44.0513C145.952 44.1417 146.313 44.1541 146.683 44.0886C147.057 44.0294 147.421 43.8953 147.775 43.6864C148.128 43.4774 148.418 43.2252 148.644 42.9299C148.879 42.6371 149.043 42.315 149.133 41.9634C149.233 41.6144 149.258 41.2593 149.206 40.898C149.154 40.5367 149.026 40.1825 148.82 39.8353C148.619 39.4944 148.372 39.2142 148.081 38.9947C147.789 38.7752 147.464 38.6222 147.107 38.5355C146.759 38.4515 146.398 38.4391 146.024 38.4983C145.656 38.5537 145.296 38.6859 144.942 38.8949C144.589 39.1039 144.296 39.3579 144.064 39.657C143.832 39.956 143.669 40.2782 143.575 40.6234C143.484 40.975 143.462 41.3333 143.507 41.6983C143.559 42.0596 143.685 42.4107 143.887 42.7516Z" fill="white"/>
<path d="M148.427 53.3703L156.183 50.7232L156.559 51.8267L152.27 58.0563L151.96 57.5228L157.821 55.5224L158.304 56.9382L150.548 59.5853L150.168 58.4714L154.521 52.29L154.813 52.7715L148.91 54.7861L148.427 53.3703Z" fill="white"/>
<path d="M154.739 76.9369C154.719 76.5047 154.8 76.1083 154.982 75.7477C155.164 75.3944 155.427 75.1073 155.769 74.8862C156.112 74.6725 156.503 74.5557 156.942 74.5358C157.36 74.5169 157.738 74.5989 158.076 74.7817C158.422 74.9643 158.702 75.2232 158.915 75.5586C159.129 75.8939 159.246 76.2851 159.266 76.7319C159.285 77.1568 159.203 77.5386 159.02 77.8772C158.838 78.2158 158.582 78.4917 158.254 78.7047C157.926 78.9178 157.557 79.0373 157.147 79.0632C156.708 79.0831 156.308 79.0021 155.947 78.8202C155.586 78.6383 155.3 78.3834 155.087 78.0553C154.874 77.7346 154.758 77.3618 154.739 76.9369Z" fill="white"/>
<path d="M153.349 95.0096L161.834 94.9374L161.431 96.492L154.236 96.4101L154.341 96.0055L160.65 99.5053L160.26 101.007L153.049 100.989L153.154 100.584L159.481 104.009L159.078 105.564L151.698 101.377L152.129 99.7159L159.165 99.6657L159.043 100.134L152.919 96.6707L153.349 95.0096Z" fill="white"/>
<path d="M149.616 108.531L155.723 114.685L154.868 116.422L146.267 115.342L146.985 113.881L148.822 114.135L150.22 111.292L148.903 109.982L149.616 108.531ZM151.215 112.26L150.196 114.333L154.46 114.91L154.275 115.285L151.215 112.26Z" fill="white"/>
<path d="M141.651 122.896C141.96 122.477 142.324 122.145 142.743 121.898C143.158 121.657 143.597 121.507 144.06 121.448C144.524 121.399 144.983 121.45 145.436 121.602L145.131 122.922C144.636 122.803 144.168 122.813 143.728 122.953C143.293 123.097 142.937 123.358 142.658 123.736C142.501 123.948 142.399 124.155 142.35 124.356C142.304 124.568 142.309 124.758 142.366 124.928C142.418 125.104 142.527 125.252 142.693 125.374C142.887 125.518 143.09 125.577 143.301 125.55C143.514 125.534 143.74 125.437 143.981 125.259L145.322 124.294C145.86 123.898 146.385 123.688 146.895 123.664C147.405 123.639 147.876 123.786 148.306 124.104C148.684 124.382 148.95 124.72 149.104 125.116C149.254 125.518 149.286 125.944 149.202 126.392C149.119 126.85 148.918 127.294 148.6 127.725C148.308 128.12 147.97 128.431 147.584 128.657C147.205 128.887 146.804 129.029 146.382 129.082C145.961 129.145 145.542 129.114 145.125 128.988L145.414 127.67C145.84 127.784 146.238 127.777 146.606 127.648C146.981 127.523 147.294 127.29 147.547 126.948C147.695 126.747 147.79 126.544 147.833 126.338C147.881 126.137 147.876 125.946 147.817 125.766C147.76 125.597 147.649 125.451 147.484 125.329C147.301 125.194 147.095 125.133 146.867 125.147C146.644 125.164 146.405 125.266 146.15 125.451L144.874 126.383C144.315 126.782 143.79 127 143.297 127.037C142.8 127.081 142.331 126.939 141.888 126.613C141.51 126.334 141.249 125.99 141.104 125.582C140.958 125.174 140.929 124.738 141.017 124.274C141.104 123.81 141.315 123.351 141.651 122.896Z" fill="white"/>
<path d="M135.719 130.948L141.304 136.945L140.209 137.965L137.773 135.349L135.221 137.725L137.657 140.342L136.554 141.369L130.969 135.372L132.072 134.344L134.321 136.759L136.873 134.383L134.624 131.968L135.719 130.948Z" fill="white"/>
<path d="M124.146 141.007L127.897 146.769L129.676 145.611L130.396 146.717L125.602 149.838L124.882 148.732L126.634 147.591L122.883 141.83L124.146 141.007Z" fill="white"/>
<path d="M112.249 147.754C112.805 147.525 113.364 147.409 113.926 147.406C114.489 147.404 115.022 147.505 115.527 147.709C116.032 147.913 116.484 148.21 116.884 148.6C117.279 149 117.592 149.478 117.821 150.034C118.054 150.596 118.17 151.155 118.169 151.711C118.169 152.267 118.062 152.795 117.848 153.296C117.635 153.797 117.327 154.241 116.924 154.63C116.524 155.025 116.043 155.339 115.48 155.572C114.918 155.804 114.355 155.922 113.793 155.924C113.231 155.927 112.697 155.826 112.192 155.622C111.69 155.425 111.243 155.129 110.85 154.736C110.451 154.346 110.135 153.87 109.902 153.307C109.672 152.751 109.56 152.191 109.564 151.626C109.572 151.067 109.682 150.537 109.895 150.037C110.109 149.536 110.416 149.088 110.816 148.692C111.209 148.299 111.687 147.987 112.249 147.754ZM112.77 149.015C112.397 149.169 112.082 149.375 111.823 149.633C111.568 149.897 111.373 150.195 111.241 150.528C111.102 150.863 111.039 151.219 111.051 151.594C111.057 151.973 111.138 152.352 111.295 152.731C111.452 153.111 111.66 153.433 111.921 153.699C112.177 153.973 112.473 154.18 112.808 154.32C113.14 154.468 113.488 154.543 113.853 154.543C114.218 154.543 114.587 154.465 114.959 154.311C115.325 154.16 115.638 153.956 115.896 153.698C116.155 153.44 116.352 153.141 116.488 152.799C116.621 152.466 116.684 152.111 116.678 151.732C116.676 151.36 116.596 150.985 116.439 150.605C116.282 150.226 116.072 149.9 115.809 149.628C115.545 149.356 115.25 149.149 114.921 149.007C114.586 148.868 114.234 148.795 113.867 148.788C113.502 148.788 113.136 148.864 112.77 149.015Z" fill="white"/>
<path d="M101.603 152L103.122 160.053L101.976 160.269L96.4191 155.138L96.9912 154.907L98.1389 160.992L96.6688 161.27L95.1501 153.217L96.3067 152.999L101.807 158.185L101.289 158.406L100.133 152.277L101.603 152Z" fill="white"/>
<path d="M77.2818 154.922C77.7125 154.964 78.0936 155.1 78.425 155.331C78.7492 155.561 78.9966 155.861 79.1674 156.231C79.3308 156.6 79.3915 157.004 79.3495 157.442C79.3095 157.858 79.1752 158.221 78.9466 158.53C78.7172 158.847 78.4215 159.087 78.0595 159.252C77.6975 159.416 77.2939 159.476 76.8486 159.434C76.4252 159.393 76.0587 159.258 75.7492 159.03C75.4396 158.801 75.2024 158.509 75.0375 158.155C74.8727 157.8 74.8063 157.418 74.8382 157.008C74.8803 156.57 75.0167 156.186 75.2474 155.854C75.4782 155.523 75.7709 155.275 76.1256 155.11C76.473 154.944 76.8584 154.882 77.2818 154.922Z" fill="white"/>
<path d="M59.7286 151.027L58.5999 159.436L57.118 158.817L58.2168 151.706L58.6025 151.867L54.2456 157.617L52.8144 157.02L53.8523 149.883L54.238 150.044L49.9521 155.824L48.4702 155.205L53.6589 148.491L55.2423 149.152L54.2968 156.125L53.8502 155.938L58.1452 150.365L59.7286 151.027Z" fill="white"/>
<path d="M46.8631 145.411L39.912 150.59L38.3121 149.5L40.5911 141.136L41.9364 142.053L41.427 143.836L44.0449 145.62L45.5269 144.5L46.8631 145.411ZM42.947 146.469L41.0382 145.168L39.8671 149.309L39.5216 149.073L42.947 146.469Z" fill="white"/>
<path d="M33.7552 135.502C34.1267 135.866 34.4052 136.274 34.5908 136.723C34.7712 137.167 34.8583 137.623 34.8521 138.09C34.8357 138.557 34.7205 139.004 34.5065 139.431L33.242 138.944C33.4296 138.471 33.485 138.006 33.4082 137.551C33.3263 137.1 33.118 136.711 32.7831 136.382C32.5947 136.197 32.4043 136.066 32.2117 135.99C32.0088 135.914 31.8193 135.893 31.6433 135.925C31.462 135.953 31.2995 136.04 31.1556 136.186C30.986 136.359 30.8996 136.552 30.8964 136.764C30.8828 136.977 30.9472 137.215 31.0896 137.478L31.8574 138.941C32.1739 139.53 32.3085 140.078 32.2613 140.587C32.2141 141.095 32.0029 141.541 31.6278 141.923C31.299 142.258 30.9276 142.474 30.5136 142.571C30.0944 142.663 29.669 142.635 29.2372 142.489C28.7951 142.343 28.3831 142.082 28.0011 141.707C27.6505 141.363 27.3904 140.984 27.2207 140.57C27.0458 140.162 26.9617 139.746 26.9682 139.32C26.9643 138.895 27.0539 138.485 27.237 138.089L28.5014 138.56C28.3288 138.966 28.2805 139.36 28.3566 139.743C28.4275 140.132 28.6148 140.475 28.9182 140.773C29.0961 140.948 29.2839 141.07 29.4816 141.141C29.6742 141.217 29.8637 141.239 30.0501 141.206C30.2261 141.173 30.386 141.084 30.5299 140.937C30.6892 140.775 30.7781 140.58 30.7968 140.351C30.8103 140.128 30.7432 139.877 30.5955 139.599L29.8516 138.205C29.5349 137.596 29.3925 137.045 29.4243 136.552C29.4509 136.054 29.6569 135.609 30.0422 135.217C30.3711 134.882 30.7477 134.671 31.1721 134.584C31.5966 134.497 32.0325 134.529 32.4798 134.681C32.9272 134.832 33.3523 135.106 33.7552 135.502Z" fill="white"/>
<path d="M26.6076 128.495L19.8871 133.185L19.031 131.958L21.9628 129.912L19.9673 127.053L17.0355 129.098L16.1732 127.862L22.8937 123.173L23.756 124.409L21.0498 126.297L23.0453 129.157L25.7515 127.268L26.6076 128.495Z" fill="white"/>
<path d="M18.2715 115.636L12.0386 118.538L12.9344 120.462L11.7377 121.019L9.32401 115.833L10.5207 115.276L11.4027 117.171L17.6356 114.27L18.2715 115.636Z" fill="white"/>
<path d="M13.2812 102.916C13.43 103.499 13.4657 104.069 13.3885 104.626C13.3112 105.183 13.1359 105.697 12.8626 106.168C12.5893 106.639 12.2311 107.044 11.7881 107.384C11.3363 107.719 10.819 107.961 10.2364 108.11C9.64661 108.26 9.07675 108.296 8.52676 108.217C7.97677 108.138 7.46897 107.957 7.00334 107.675C6.53771 107.393 6.14102 107.025 5.81327 106.571C5.47842 106.119 5.23571 105.599 5.08514 105.009C4.93458 104.419 4.89792 103.846 4.97518 103.289C5.05244 102.731 5.22774 102.217 5.50108 101.747C5.76731 101.277 6.12281 100.876 6.56758 100.543C7.01054 100.203 7.52689 99.9578 8.11664 99.8072C8.69929 99.6585 9.27006 99.6263 9.82897 99.7106C10.3808 99.7968 10.8895 99.981 11.3551 100.263C11.8207 100.546 12.221 100.913 12.5558 101.365C12.8889 101.809 13.1307 102.327 13.2812 102.916ZM11.9596 103.254C11.8599 102.863 11.7008 102.521 11.4823 102.229C11.2567 101.938 10.9888 101.704 10.6784 101.526C10.3662 101.341 10.0233 101.228 9.64958 101.187C9.27405 101.139 8.88734 101.166 8.48943 101.267C8.09153 101.369 7.74283 101.53 7.44334 101.75C7.13494 101.965 6.88813 102.229 6.70294 102.541C6.50882 102.848 6.38598 103.182 6.33443 103.543C6.28287 103.905 6.30698 104.281 6.40675 104.671C6.50471 105.055 6.66291 105.393 6.88136 105.685C7.09981 105.978 7.36868 106.216 7.68797 106.399C7.99833 106.577 8.34128 106.69 8.71681 106.738C9.08523 106.788 9.46839 106.762 9.8663 106.66C10.2642 106.559 10.6164 106.397 10.923 106.175C11.2296 105.953 11.4764 105.689 11.6635 105.384C11.8486 105.072 11.9706 104.734 12.0292 104.371C12.0808 104.01 12.0576 103.637 11.9596 103.254Z" fill="white"/>
<path d="M10.5822 91.7887L2.39588 92.165L2.34233 91.0002L8.20083 86.2162L8.34948 86.815L2.16301 87.0994L2.09432 85.6049L10.2807 85.2286L10.3347 86.4044L4.42924 91.1245L4.28311 90.5807L10.5135 90.2943L10.5822 91.7887Z" fill="white"/>
<path d="M11.0779 67.307C10.9765 67.7276 10.7882 68.0858 10.5132 68.3815C10.2399 68.6701 9.90805 68.873 9.51771 68.99C9.12909 69.1 8.72092 69.1033 8.29319 69.0001C7.88685 68.9021 7.5465 68.7182 7.27214 68.4483C6.99065 68.1767 6.79408 67.8502 6.68243 67.4687C6.57078 67.0872 6.56742 66.679 6.67232 66.2441C6.77207 65.8307 6.95688 65.4868 7.22675 65.2124C7.49662 64.938 7.81874 64.7442 8.1931 64.6308C8.56746 64.5174 8.95511 64.5053 9.35604 64.5945C9.78377 64.6977 10.1455 64.8868 10.4413 65.1619C10.737 65.4369 10.9416 65.7616 11.0549 66.1359C11.17 66.5032 11.1777 66.8935 11.0779 67.307Z" fill="white"/>
<path d="M17.4356 50.432L9.27005 48.1251L10.0925 46.7456L16.9765 48.8392L16.7624 49.1982L11.6866 44.0718L12.4808 42.7396L19.3987 44.7764L19.1846 45.1354L14.0693 40.0751L14.8917 38.6957L20.8041 44.7819L19.9254 46.2558L13.1569 44.3336L13.4047 43.9179L18.3143 48.958L17.4356 50.432Z" fill="white"/>
<path d="M24.8036 38.4966L20.6495 30.8879L21.9533 29.4567L29.9151 32.8858L28.8188 34.0893L27.1251 33.335L24.9916 35.6769L25.8926 37.3013L24.8036 38.4966ZM24.3047 34.4708L25.8604 32.7632L21.925 31.0232L22.2065 30.7142L24.3047 34.4708Z" fill="white"/>
<path d="M36.4461 26.911C36.0329 27.2279 35.5908 27.4467 35.1198 27.5676C34.6546 27.684 34.1914 27.7065 33.73 27.6352C33.2701 27.5535 32.8436 27.3769 32.4505 27.1053L33.109 25.9213C33.5517 26.1732 34.004 26.2931 34.4659 26.2809C34.9233 26.2628 35.3383 26.111 35.7107 25.8254C35.9202 25.6648 36.0761 25.4944 36.1783 25.3144C36.2819 25.1241 36.3298 24.9395 36.322 24.7606C36.3201 24.5773 36.2566 24.4042 36.1317 24.2412C35.9845 24.0492 35.8058 23.9367 35.5957 23.9037C35.3869 23.8605 35.1423 23.8909 34.8618 23.9951L33.3056 24.5507C32.6789 24.7818 32.117 24.8383 31.6199 24.7204C31.1229 24.6025 30.7116 24.3311 30.3858 23.9063C30.1002 23.5338 29.9383 23.1359 29.9001 22.7124C29.8677 22.2844 29.9542 21.867 30.1596 21.46C30.3664 21.0427 30.6822 20.6712 31.107 20.3454C31.4969 20.0465 31.9084 19.8419 32.3414 19.7317C32.7699 19.6156 33.1942 19.5906 33.6144 19.6565C34.036 19.7122 34.4299 19.8583 34.7962 20.095L34.1531 21.2811C33.7752 21.0534 33.3913 20.9504 33.0014 20.9721C32.607 20.9881 32.241 21.1254 31.9035 21.3842C31.7056 21.5359 31.5578 21.7047 31.4601 21.8906C31.3578 22.0706 31.3099 22.2552 31.3163 22.4443C31.3241 22.6232 31.3905 22.7941 31.5154 22.957C31.6537 23.1374 31.8346 23.2529 32.0581 23.3033C32.2771 23.3479 32.5349 23.3166 32.8315 23.2093L34.3153 22.6677C34.9626 22.4393 35.5281 22.3754 36.0117 22.4758C36.5012 22.5718 36.9132 22.8381 37.2479 23.2745C37.5335 23.647 37.6896 24.0494 37.7161 24.4818C37.7427 24.9142 37.6497 25.3413 37.4372 25.7631C37.2246 26.1848 36.8942 26.5675 36.4461 26.911Z" fill="white"/>
<path d="M44.3737 20.8165L40.6756 13.5034L42.0106 12.8283L43.6239 16.0186L46.7356 14.445L45.1224 11.2547L46.4672 10.5747L50.1653 17.8879L48.8205 18.5679L47.3313 15.623L44.2195 17.1965L45.7087 20.1414L44.3737 20.8165Z" fill="white"/>
<path d="M58.2746 14.3828L56.2839 7.8023L54.2519 8.41703L53.8697 7.15358L59.3446 5.49732L59.7268 6.76077L57.7264 7.36594L59.7171 13.9464L58.2746 14.3828Z" fill="white"/>
<path d="M71.5565 11.2356C70.9587 11.3009 70.3895 11.256 69.8488 11.1011C69.3082 10.9462 68.824 10.7003 68.3962 10.3634C67.9684 10.0265 67.6174 9.61485 67.343 9.12843C67.075 8.63391 66.9085 8.08777 66.8432 7.48999C66.7771 6.88491 66.822 6.31569 66.9777 5.78231C67.1334 5.24893 67.3837 4.77161 67.7287 4.35035C68.0737 3.92909 68.4938 3.58814 68.9892 3.32752C69.4837 3.0596 70.0335 2.89262 70.6385 2.82657C71.2436 2.76051 71.8165 2.80494 72.3571 2.95985C72.8978 3.11475 73.382 3.36066 73.8098 3.69756C74.2367 4.02717 74.5838 4.43559 74.8509 4.92281C75.1253 5.40924 75.2955 5.95499 75.3616 6.56006C75.4268 7.15784 75.3784 7.72747 75.2162 8.26894C75.0532 8.80311 74.7992 9.28083 74.4542 9.70209C74.1092 10.1233 73.6895 10.4679 73.195 10.7359C72.7077 11.003 72.1616 11.1696 71.5565 11.2356ZM71.4085 9.87967C71.8094 9.83589 72.17 9.72645 72.4903 9.55133C72.8097 9.36892 73.0794 9.13661 73.2994 8.85441C73.5267 8.5714 73.6869 8.24778 73.7799 7.88353C73.8802 7.51849 73.9081 7.13185 73.8635 6.7236C73.8189 6.31536 73.7087 5.94749 73.5328 5.61998C73.3634 5.28438 73.1371 5.00293 72.8541 4.77564C72.5776 4.54025 72.2641 4.37161 71.9137 4.26971C71.5632 4.16781 71.1875 4.13874 70.7866 4.18251C70.3929 4.22549 70.036 4.33453 69.7157 4.50965C69.3955 4.68477 69.1222 4.91748 68.8957 5.20777C68.6756 5.48998 68.5155 5.81361 68.4152 6.17865C68.3141 6.5364 68.2858 6.9194 68.3304 7.32764C68.3749 7.73588 68.4856 8.1074 68.6623 8.4422C68.839 8.777 69.0652 9.05845 69.3409 9.28654C69.6239 9.51384 69.9411 9.68208 70.2923 9.79127C70.6428 9.89318 71.0148 9.92264 71.4085 9.87967Z" fill="white"/>
<path d="M82.4999 25C50.7424 25 25 50.7424 25 82.4999C25 114.257 50.7424 140 82.4999 140C114.257 140 140 114.257 140 82.4999C140 50.7424 114.257 25 82.4999 25ZM82.4999 124.446C59.3339 124.446 40.554 105.666 40.554 82.4999C40.554 59.3339 59.3339 40.554 82.4999 40.554C105.666 40.554 124.446 59.3339 124.446 82.4999C124.446 105.666 105.666 124.446 82.4999 124.446Z" fill="white"/>
<path d="M118.58 82.5123C118.58 85.0355 118.303 87.4841 117.835 89.8795C117.728 89.9114 117.664 89.9434 117.558 89.986C114.247 90.9441 110.776 91.1464 107.337 91.2103C103.792 91.2422 100.247 91.1464 96.8084 90.3905C92.1348 89.3365 87.8763 87.1541 83.6497 84.8332C79.189 82.4165 74.7495 79.8615 69.8843 78.4242C65.7642 77.2319 61.4312 76.8592 57.1408 77.0296C53.5318 77.1999 49.7737 77.7748 46.5798 79.3504C48.1768 60.8793 63.6562 46.4219 82.5106 46.4219C101.365 46.4219 117.888 61.8588 118.569 81.1922C118.601 81.6394 118.601 82.0759 118.601 82.523L118.58 82.5123Z" fill="#4624F4"/>
<path d="M117.824 89.8812C114.417 106.276 99.8958 118.583 82.4787 118.583C62.5704 118.583 46.4202 102.422 46.4202 82.5247C46.4202 81.4707 46.4521 80.3741 46.5586 79.3521C49.7631 77.7871 53.5105 77.2016 57.1195 77.0313C61.4099 76.8609 65.743 77.2335 69.863 78.4259C79.3381 81.1833 87.1737 88.2417 96.7871 90.3922C100.226 91.1374 103.771 91.2439 107.316 91.2119C110.755 91.1481 114.236 90.9351 117.536 89.9876C117.643 89.9557 117.707 89.9237 117.813 89.8812H117.824Z" fill="#8871FF"/>
<path d="M118.579 82.5072C118.579 85.0304 118.303 87.479 117.834 89.8744C117.728 89.9063 117.664 89.9382 117.557 89.9808C114.247 90.939 110.776 91.1412 107.337 91.2051C103.792 91.2371 100.247 91.1413 96.8081 90.3854C92.1345 89.3314 87.8759 87.1489 83.6494 84.8281H83.7878C86.4174 84.8281 89.0045 84.5513 91.5915 84.1148C94.5937 83.6038 97.5852 82.8905 100.492 82.0068C103.153 81.1871 105.772 80.197 108.498 79.686C111.223 79.175 114.087 79.1111 116.716 80.1651C117.366 80.3993 118.015 80.74 118.558 81.1871C118.59 81.6342 118.59 82.0707 118.59 82.5179L118.579 82.5072Z" fill="#6548FF"/>
</svg>
